<svg xmlns="http://www.w3.org/2000/svg" xmlns:xlink="http://www.w3.org/1999/xlink" width="376.031" height="701.097" viewBox="0 0 376.031 701.097">
  <defs>
    <filter id="base" x="0" y="0" width="376.031" height="701.097" filterUnits="userSpaceOnUse">
      <feOffset dy="12" input="SourceAlpha"/>
      <feGaussianBlur stdDeviation="9" result="blur"/>
      <feFlood flood-opacity="0.18"/>
      <feComposite operator="in" in2="blur"/>
      <feComposite in="SourceGraphic"/>
    </filter>
    <clipPath id="clip-path">
      <rect id="mask" width="302.549" height="627.64" rx="28.8" fill="#48913e"/>
    </clipPath>
    <filter id="Path_3709" x="39.734" y="76.362" width="296.2" height="422.847" filterUnits="userSpaceOnUse">
      <feOffset dy="3" input="SourceAlpha"/>
      <feGaussianBlur stdDeviation="3" result="blur-2"/>
      <feFlood flood-opacity="0.161"/>
      <feComposite operator="in" in2="blur-2"/>
      <feComposite in="SourceGraphic"/>
    </filter>
    <clipPath id="clip-path-2">
      <rect width="32" height="31" fill="none"/>
    </clipPath>
    <linearGradient id="linear-gradient" x1="1.043" x2="0.052" y2="1" gradientUnits="objectBoundingBox">
      <stop offset="0" stop-color="#7ef192"/>
      <stop offset="1" stop-color="#2dc897"/>
    </linearGradient>
    <linearGradient id="linear-gradient-2" x1="-0.205" y1="0.361" x2="1.205" y2="0.639" gradientUnits="objectBoundingBox">
      <stop offset="0" stop-color="#5cf79f"/>
      <stop offset="1" stop-color="#4fb85b"/>
    </linearGradient>
    <linearGradient id="linear-gradient-3" x1="-0.205" y1="0.311" x2="1.205" y2="0.689" xlink:href="#linear-gradient-2"/>
    <linearGradient id="linear-gradient-4" x1="-0.205" y1="0.406" x2="1.205" y2="0.594" xlink:href="#linear-gradient-2"/>
    <linearGradient id="linear-gradient-5" x1="0.471" y1="0.058" x2="0.5" y2="1" gradientUnits="objectBoundingBox">
      <stop offset="0" stop-color="#26c1c9" stop-opacity="0.071"/>
      <stop offset="1" stop-color="#fff" stop-opacity="0.063"/>
    </linearGradient>
    <linearGradient id="linear-gradient-6" x1="0.456" y1="0.224" x2="0.5" y2="1" gradientUnits="objectBoundingBox">
      <stop offset="0" stop-color="#faca00" stop-opacity="0"/>
      <stop offset="1" stop-color="#fff" stop-opacity="0"/>
    </linearGradient>
  </defs>
  <g id="Group_5241" data-name="Group 5241" transform="translate(-233.969 -4383.983)">
    <g id="iphone" transform="translate(260.969 4398.983)">
      <g transform="matrix(1, 0, 0, 1, -27, -15)" filter="url(#base)">
        <rect id="base-2" data-name="base" width="322.031" height="647.097" rx="43.2" transform="translate(27 15)" fill="#94f68d"/>
      </g>
      <rect id="mask-2" data-name="mask" width="302.549" height="627.64" rx="28.8" transform="translate(9.741 9.729)" fill="#63ca5c"/>
      <path id="bar" d="M0,0H105.411a0,0,0,0,1,0,0V0A15.288,15.288,0,0,1,90.123,15.288H15.288A15.288,15.288,0,0,1,0,0V0A0,0,0,0,1,0,0Z" transform="translate(108.482 9.381)" fill="#94f68d"/>
      <g id="Top" transform="translate(152.955 11.008)">
        <path id="receiver" d="M1.883,0h22.6a1.91,1.91,0,0,1,1.883,1.935A1.91,1.91,0,0,1,24.483,3.87H1.883A1.91,1.91,0,0,1,0,1.935,1.91,1.91,0,0,1,1.883,0Z" transform="translate(0 1.366)" fill="#fff"/>
        <ellipse id="camera" cx="3.102" cy="3.187" rx="3.102" ry="3.187" transform="translate(33.234)" fill="#fff"/>
      </g>
    </g>
    <g id="Group_5005" data-name="Group 5005" transform="translate(282.703 4466.345)">
      <g id="Group_4983" data-name="Group 4983" transform="translate(0 0)">
        <g id="Group_4850" data-name="Group 4850" transform="translate(0 0)">
          <g id="Group_4853" data-name="Group 4853">
            <g id="Group_4835" data-name="Group 4835" transform="translate(0 0)">
              <g id="Group_4826" data-name="Group 4826">
                <g transform="matrix(1, 0, 0, 1, -48.73, -82.36)" filter="url(#Path_3709)">
                  <path id="Path_3709-2" data-name="Path 3709" d="M5.8,0H272.4c3.2,0,5.8,5.312,5.8,11.864V392.983c0,6.552-2.595,11.864-5.8,11.864H5.8c-3.2,0-5.8-5.312-5.8-11.864V11.864C0,5.312,2.595,0,5.8,0Z" transform="translate(48.73 82.36)" fill="#fff"/>
                </g>
              </g>
            </g>
          </g>
        </g>
        <g id="Group_4807" data-name="Group 4807" transform="translate(238.354 7.26)">
          <g id="Group_4806" data-name="Group 4806">
            <g id="Color" transform="translate(0.334 0.396)" clip-path="url(#clip-path-2)">
              <circle id="Bg" cx="16" cy="16" r="16" fill="url(#linear-gradient)"/>
            </g>
          </g>
          <g id="bar-chart" transform="translate(5.071 5.071)">
            <g id="Group_4805" data-name="Group 4805" transform="translate(0 0)">
              <path id="Path_3698" data-name="Path 3698" d="M14.974,3.073c.309-.663.617-1.322.944-2.027A11.052,11.052,0,0,0,5.467,1.6,11.017,11.017,0,0,0,.018,10.231c.769.069,1.5.129,2.225.193A9.017,9.017,0,0,1,14.974,3.073Z" transform="translate(-0.018 0)" fill="#fff"/>
              <path id="Path_3699" data-name="Path 3699" d="M269.457,201.219c-.723.124-1.442.253-2.193.382a9,9,0,0,1-8.047,10.484c.065.737.124,1.456.189,2.174A11.135,11.135,0,0,0,269.457,201.219Z" transform="translate(-247.279 -191.951)" fill="#fff"/>
              <path id="Path_3700" data-name="Path 3700" d="M3.446,260.319c-.691.06-1.409.12-2.128.184a11.094,11.094,0,0,0,10.129,10.166c.064-.737.129-1.46.189-2.16C6.956,267.726,4.238,265.013,3.446,260.319Z" transform="translate(-1.258 -248.328)" fill="#fff"/>
              <path id="Path_3701" data-name="Path 3701" d="M355.871,48.027a9.406,9.406,0,0,1,1.327,2.4l2.1-.765a11.3,11.3,0,0,0-4.1-5.339c-.428.608-.848,1.207-1.28,1.829A9.69,9.69,0,0,1,355.871,48.027Z" transform="translate(-337.617 -42.278)" fill="#fff"/>
              <path id="Path_3702" data-name="Path 3702" d="M294.682,177.819a.362.362,0,0,0-.364.364v7.2a.362.362,0,0,0,.364.364h2.492a.362.362,0,0,0,.364-.364v-7.2a.362.362,0,0,0-.364-.364Zm2.128,7.2h-1.764v-6.467h1.764Z" transform="translate(-280.762 -169.628)" fill="#fff"/>
              <path id="Path_3703" data-name="Path 3703" d="M121.182,219.319a.362.362,0,0,0-.364.364v5.288a.362.362,0,0,0,.364.364h2.492a.362.362,0,0,0,.364-.364v-5.288a.362.362,0,0,0-.364-.364Zm.364,5.288v-.567l.567.567Zm1.142,0-1.142-1.142v-.576l1.723,1.723h-.58Zm.622-.534-1.764-1.764v-.576l1.764,1.764Zm0-1.152-1.764-1.764v-.576l1.764,1.764Zm0-1.152-1.718-1.718h.576l1.142,1.142Zm0-1.156-.567-.567h.567Z" transform="translate(-115.254 -209.217)" fill="#fff"/>
              <path id="Path_3704" data-name="Path 3704" d="M207.882,114.319a.362.362,0,0,0-.364.364v10.124a.362.362,0,0,0,.364.364h2.492a.362.362,0,0,0,.364-.364V114.683a.362.362,0,0,0-.364-.364Z" transform="translate(-197.96 -109.053)" fill="#fff"/>
            </g>
          </g>
        </g>
        <text id="احصائيات_مالية" data-name="احصائيات مالية" transform="translate(141.688 26.655)" fill="#393939" font-size="14" font-family="Tajawal-Medium, Tajawal" font-weight="500" letter-spacing="-0.005em"><tspan x="0" y="0">احصائيات مالية</tspan></text>
        <g id="line_copy" data-name="line copy" transform="translate(27.53 47.106)">
          <rect id="Rectangle_9" data-name="Rectangle 9" width="228" height="1" transform="translate(0.158 -0.451)" fill="none"/>
          <rect id="Rectangle_9_Copy" data-name="Rectangle 9 Copy" width="228.211" height="0.362" fill="#d3dfef"/>
        </g>
        <g id="Mar" transform="translate(28.255 290.676)">
          <text id="إجمالى_المدين" data-name="إجمالى المدين" transform="translate(0 77.519)" fill="#646464" font-size="12" font-family="Tajawal-Regular, Tajawal"><tspan x="14.48" y="12">إجمالى</tspan><tspan y="12"> </tspan></text>
          <text id="_745" data-name="745" transform="translate(5.796)" fill="#171f24" font-size="12" font-family="Roboto-Regular, Roboto"><tspan x="14.887" y="13">745</tspan></text>
          <rect id="Rectangle_3" data-name="Rectangle 3" width="22" height="55" rx="3" transform="translate(19.434 18.979)" fill="url(#linear-gradient-2)"/>
        </g>
        <g id="Apr" transform="translate(125.335 278.36)">
          <text id="إجمالي_الدائن" data-name="إجمالي الدائن" transform="translate(0 89.835)" fill="#646464" font-size="12" font-family="Tajawal-Regular, Tajawal"><tspan x="9.047" y="12">إجمالي</tspan><tspan y="12"> </tspan></text>
          <text id="_551" data-name="551" fill="#171f24" font-size="12" font-family="Roboto-Regular, Roboto"><tspan x="14.887" y="13">551</tspan></text>
          <rect id="Rectangle_3-2" data-name="Rectangle 3" width="22" height="65" rx="3" transform="translate(14.353 20.295)" fill="url(#linear-gradient-3)"/>
        </g>
        <g id="Jun" transform="translate(203.579 261.552)">
          <text id="الرصيد_الاجمالي" data-name="الرصيد الاجمالي" transform="translate(0.109 107.104)" fill="#646464" font-size="12" font-family="Tajawal-Regular, Tajawal"><tspan x="11.318" y="12">الرصيد</tspan><tspan y="12"> </tspan></text>
          <text id="_950" data-name="950" transform="translate(5.109 0.104)" fill="#171f24" font-size="12" font-family="Roboto-Regular, Roboto"><tspan x="14.893" y="13">950</tspan></text>
          <rect id="Rectangle_3-3" data-name="Rectangle 3" width="21.734" height="81.142" rx="3" transform="translate(16.663 21.589)" fill="url(#linear-gradient-4)"/>
        </g>
      </g>
      <g id="Send" transform="translate(155.763 191.277)">
        <text id="Send-2" data-name="Send" transform="translate(19.925 11.378)" fill="#ff3131" font-size="10" font-family="Tajawal-ExtraBold, Tajawal" font-weight="800" letter-spacing="-0.024em"><tspan x="0" y="0">إجمالي الدائن</tspan></text>
        <circle id="Oval" cx="3.622" cy="3.622" r="3.622" transform="translate(86.161 4.347)" fill="#ff3131"/>
        <text id="_23_876.69" data-name="$23,876.69" transform="translate(-0.075 37.378)" fill="#1c1c1c" font-size="14" font-family="Roboto-Regular, Roboto" letter-spacing="-0.024em"><tspan x="0" y="0">SAR 23,876.69</tspan></text>
      </g>
      <g id="Receive" transform="translate(44.193 191.277)">
        <text id="Receive-2" data-name="Receive" transform="translate(0.494 11.378)" fill="#4fb85b" font-size="10" font-family="Tajawal-ExtraBold, Tajawal" font-weight="800" letter-spacing="-0.024em"><tspan x="0" y="0">إجمالى المدين</tspan></text>
        <circle id="Oval-2" data-name="Oval" cx="3.622" cy="3.622" r="3.622" transform="translate(68.428 4.347)" fill="#4fb85b"/>
      </g>
      <g id="Chart" transform="translate(5.887 61.596)">
        <path id="Line" d="M0,57.289c28.864,0,24.3-44.994,46.53-44.994,14.48,0,14.822,21.118,37.629,21.118S111.474,46.5,123.944,46.475c18.634-.033,23.4-34.46,38.866-34.46S185.413,0,196.983,0c25.639,0,31.38,57.289,58.546,57.289" transform="translate(9.54 39.791)" stroke="#ff3131" stroke-linecap="round" stroke-linejoin="round" stroke-miterlimit="10" stroke-width="3" fill="url(#linear-gradient-5)"/>
        <path id="Line-2" data-name="Line" d="M0,90.932c31.293,0,28.532-26.4,48.78-28.355C66.48,60.867,67.24,92.009,91.6,92.009s20.188-27.477,41.851-27.477C155.543,64.532,154.623,0,175.792,0S192.358,19.555,217.8,25.828s31.892,50.438,47.269,50.438" transform="translate(0 2.898)" stroke="#4fb85b" stroke-linecap="round" stroke-linejoin="round" stroke-miterlimit="10" stroke-width="3" fill="url(#linear-gradient-6)"/>
        <g id="Oval-3" data-name="Oval" transform="translate(200.801 33.06)" fill="#fff" stroke="#ff3131" stroke-miterlimit="10" stroke-width="3">
          <circle cx="6.5" cy="6.5" r="6.5" stroke="none"/>
          <circle cx="6.5" cy="6.5" r="5" fill="none"/>
        </g>
        <g id="Oval_Copy" data-name="Oval Copy" transform="translate(128.801 80.06)" fill="#fff" stroke="#ff3131" stroke-miterlimit="10" stroke-width="3">
          <circle cx="6.5" cy="6.5" r="6.5" stroke="none"/>
          <circle cx="6.5" cy="6.5" r="5" fill="none"/>
        </g>
        <g id="Oval-4" data-name="Oval" transform="translate(166.801 0.06)" fill="#fff" stroke="#4fb85b" stroke-miterlimit="10" stroke-width="3">
          <circle cx="6" cy="6" r="6" stroke="none"/>
          <circle cx="6" cy="6" r="4.5" fill="none"/>
        </g>
        <g id="Oval_Copy_2" data-name="Oval Copy 2" transform="translate(85.801 88.06)" fill="#fff" stroke="#4fb85b" stroke-miterlimit="10" stroke-width="3">
          <circle cx="6.5" cy="6.5" r="6.5" stroke="none"/>
          <circle cx="6.5" cy="6.5" r="5" fill="none"/>
        </g>
      </g>
      <text id="_23_876.69-2" data-name="$23,876.69" transform="translate(26.688 228.655)" fill="#1c1c1c" font-size="14" font-family="Roboto-Regular, Roboto" letter-spacing="-0.024em"><tspan x="0" y="0">SAR 23,876.69</tspan></text>
    </g>
  </g>
</svg>
